<mxfile host="app.diagrams.net" modified="2023-06-20T03:56:12.920Z" agent="Mozilla/5.0 (Windows NT 10.0; Win64; x64) AppleWebKit/537.36 (KHTML, like Gecko) Chrome/114.0.0.0 Safari/537.36" version="21.3.8" etag="NI-dpFidgcpIRNWwWmpM" type="github">
  <diagram name="第 1 页" id="iCKh64r4BUM6SXg5tmrV">
    <mxGraphModel>
      <root>
        <mxCell id="0" />
        <mxCell id="1" parent="0" />
      </root>
    </mxGraphModel>
  </diagram>
</mxfile>
